<svg xmlns="http://www.w3.org/2000/svg" width="50" height="50" viewBox="0 0 50 50">
    <path d="M 15.28125 0.09375 C 13.81725 0.09375 12.45825 0.81825 11.65625 2.03125 L 0.625 18.6875 C -0.011 19.6485 -0.232 20.8015 0 21.9375 C 0.232 23.0735 0.88575 24.0545 1.84375 24.6875 L 20.9375 37.4375 C 21.1045 37.5495 21.27375 37.59375 21.46875 37.59375 C 21.62875 37.59375 21.7915 37.577 21.9375 37.5 C 22.2625 37.33 22.46375 36.991 22.46875 36.625 C 22.48775 35.188 23.96825 34.03125 25.15625 34.03125 C 25.41025 34.03125 25.60225 34.0815 25.78125 34.1875 C 26.06625 34.3565 26.41975 34.35875 26.71875 34.21875 C 27.01875 34.07975 27.22825 33.826 27.28125 33.5 C 27.48225 32.283 28.387 31.4375 29.5 31.4375 C 30.003 31.4375 30.53025 31.6175 31.03125 31.9375 C 31.27725 32.0945 31.56275 32.1475 31.84375 32.0625 C 32.12375 31.9775 32.35275 31.769 32.46875 31.5 C 33.20175 29.813 34.5035 29.14475 36.4375 29.46875 C 36.8225 29.53075 37.2205 29.36025 37.4375 29.03125 L 41.96875 22.1875 C 42.60475 21.2285 42.82375 20.0725 42.59375 18.9375 C 42.36275 17.8005 41.71 16.8225 40.75 16.1875 L 17.65625 0.78125 C 16.94825 0.31325 16.13025 0.09375 15.28125 0.09375 z M 19.875 12.40625 C 22.307648 12.338574 22.96875 15.125 22.96875 15.125 C 22.96875 15.125 25.756 13.5085 27.25 16.3125 C 28.745 19.1155 25.90625 20.625 25.90625 20.625 C 25.90625 20.625 28.0335 22.81175 26.0625 24.96875 C 24.0935 27.12675 21.59375 24.9375 21.59375 24.9375 C 21.59375 24.9375 20.01325 27.973 17.40625 26.5 C 14.79925 25.025 16.0625 22.25 16.0625 22.25 C 16.0625 22.25 13.12225 21.54625 13.28125 18.78125 C 13.44125 16.01425 16.90625 16.1875 16.90625 16.1875 C 16.90625 16.1875 16.522 12.97075 19.375 12.46875 C 19.553438 12.437375 19.712823 12.410762 19.875 12.40625 z M 20.71875 17.53125 C 19.467825 17.53125 18.4375 18.530325 18.4375 19.78125 C 18.4375 21.032175 19.467825 22.0625 20.71875 22.0625 C 21.969675 22.0625 22.96875 21.032175 22.96875 19.78125 C 22.96875 18.530325 21.969675 17.53125 20.71875 17.53125 z M 33.875 33.90625 C 33.611927 33.902614 33.395412 33.975416 33.25 34.125 C 32.668352 34.723338 33.410207 36.389437 34.90625 37.84375 C 36.402293 39.298063 38.074602 39.973338 38.65625 39.375 C 39.237898 38.776662 38.496043 37.110563 37 35.65625 C 35.877967 34.565515 34.66422 33.917158 33.875 33.90625 z M 43.84375 36.40625 C 43.045766 36.297544 42.178016 37.81754 41.90625 39.8125 C 41.634484 41.80746 42.077016 43.516294 42.875 43.625 C 43.672984 43.733706 44.540734 42.21371 44.8125 40.21875 C 45.084266 38.22379 44.641734 36.514956 43.84375 36.40625 z M 34.3125 41.28125 C 33.621364 41.290838 33.097307 41.48946 32.9375 41.875 C 32.617885 42.646081 33.804089 43.883181 35.59375 44.625 C 37.38341 45.366818 39.117885 45.333581 39.4375 44.5625 C 39.757114 43.79142 38.53966 42.554318 36.75 41.8125 C 35.855169 41.441591 35.003636 41.271662 34.3125 41.28125 z M 44.3125 46 C 42.59054 46.130568 41.285631 46.738561 41.28125 47.46875 C 41.276243 48.303253 42.976521 48.987484 45.0625 49 C 47.14848 49.012516 48.838743 48.365753 48.84375 47.53125 C 48.848757 46.696748 47.17973 46.012516 45.09375 46 C 44.833003 45.998436 44.558494 45.981347 44.3125 46 z"/>
</svg>